<svg width="26" height="30" viewBox="0 0 26 30" fill="none" xmlns="http://www.w3.org/2000/svg">
<path d="M3.08333 29.1667C2.30417 29.1667 1.63715 28.8892 1.08229 28.3344C0.527431 27.7795 0.25 27.1125 0.25 26.3333V6.5C0.25 5.72084 0.527431 5.05382 1.08229 4.49896C1.63715 3.9441 2.30417 3.66667 3.08333 3.66667H4.5V0.833336H7.33333V3.66667H18.6667V0.833336H21.5V3.66667H22.9167C23.6958 3.66667 24.3628 3.9441 24.9177 4.49896C25.4726 5.05382 25.75 5.72084 25.75 6.5V26.3333C25.75 27.1125 25.4726 27.7795 24.9177 28.3344C24.3628 28.8892 23.6958 29.1667 22.9167 29.1667H3.08333ZM3.08333 26.3333H22.9167V12.1667H3.08333V26.3333ZM3.08333 9.33334H22.9167V6.5H3.08333V9.33334ZM13 17.8333C12.5986 17.8333 12.2622 17.6976 11.9906 17.426C11.7191 17.1545 11.5833 16.8181 11.5833 16.4167C11.5833 16.0153 11.7191 15.6788 11.9906 15.4073C12.2622 15.1358 12.5986 15 13 15C13.4014 15 13.7378 15.1358 14.0094 15.4073C14.2809 15.6788 14.4167 16.0153 14.4167 16.4167C14.4167 16.8181 14.2809 17.1545 14.0094 17.426C13.7378 17.6976 13.4014 17.8333 13 17.8333ZM7.33333 17.8333C6.93194 17.8333 6.59549 17.6976 6.32396 17.426C6.05243 17.1545 5.91667 16.8181 5.91667 16.4167C5.91667 16.0153 6.05243 15.6788 6.32396 15.4073C6.59549 15.1358 6.93194 15 7.33333 15C7.73472 15 8.07118 15.1358 8.34271 15.4073C8.61424 15.6788 8.75 16.0153 8.75 16.4167C8.75 16.8181 8.61424 17.1545 8.34271 17.426C8.07118 17.6976 7.73472 17.8333 7.33333 17.8333ZM18.6667 17.8333C18.2653 17.8333 17.9288 17.6976 17.6573 17.426C17.3858 17.1545 17.25 16.8181 17.25 16.4167C17.25 16.0153 17.3858 15.6788 17.6573 15.4073C17.9288 15.1358 18.2653 15 18.6667 15C19.0681 15 19.4045 15.1358 19.676 15.4073C19.9476 15.6788 20.0833 16.0153 20.0833 16.4167C20.0833 16.8181 19.9476 17.1545 19.676 17.426C19.4045 17.6976 19.0681 17.8333 18.6667 17.8333ZM13 23.5C12.5986 23.5 12.2622 23.3642 11.9906 23.0927C11.7191 22.8212 11.5833 22.4847 11.5833 22.0833C11.5833 21.6819 11.7191 21.3455 11.9906 21.074C12.2622 20.8024 12.5986 20.6667 13 20.6667C13.4014 20.6667 13.7378 20.8024 14.0094 21.074C14.2809 21.3455 14.4167 21.6819 14.4167 22.0833C14.4167 22.4847 14.2809 22.8212 14.0094 23.0927C13.7378 23.3642 13.4014 23.5 13 23.5ZM7.33333 23.5C6.93194 23.5 6.59549 23.3642 6.32396 23.0927C6.05243 22.8212 5.91667 22.4847 5.91667 22.0833C5.91667 21.6819 6.05243 21.3455 6.32396 21.074C6.59549 20.8024 6.93194 20.6667 7.33333 20.6667C7.73472 20.6667 8.07118 20.8024 8.34271 21.074C8.61424 21.3455 8.75 21.6819 8.75 22.0833C8.75 22.4847 8.61424 22.8212 8.34271 23.0927C8.07118 23.3642 7.73472 23.5 7.33333 23.5ZM18.6667 23.5C18.2653 23.5 17.9288 23.3642 17.6573 23.0927C17.3858 22.8212 17.25 22.4847 17.25 22.0833C17.25 21.6819 17.3858 21.3455 17.6573 21.074C17.9288 20.8024 18.2653 20.6667 18.6667 20.6667C19.0681 20.6667 19.4045 20.8024 19.676 21.074C19.9476 21.3455 20.0833 21.6819 20.0833 22.0833C20.0833 22.4847 19.9476 22.8212 19.676 23.0927C19.4045 23.3642 19.0681 23.5 18.6667 23.5Z" fill="white"/>
</svg>
